<?xml version="1.0" encoding="utf-8"?>
<!-- Uploaded to: SVG Repo, www.svgrepo.com, Generator: SVG Repo Mixer Tools -->
<svg width="800px" height="800px" viewBox="0 0 1024 1024" fill="#000000" class="icon"  version="1.1" xmlns="http://www.w3.org/2000/svg"><path d="M896 896c0-35.376-28.626-64-64-64V448c35.376 0 64-28.626 64-64h128L512 0 0 384h128c0 35.376 28.626 64 64 64v384c-35.376 0-64 28.626-64 64-70.688 0-128 57.312-128 128h1024c0-70.688-57.312-128-128-128zM512 128c53 0 96 43 96 96s-43 96-96 96-96-43-96-96 43-96 96-96z m-128 768c0-35.376-28.626-64-64-64V448c35.376 0 64-28.626 64-64h256c0 35.376 28.626 64 64 64v384c-35.376 0-64 28.626-64 64H384z" /></svg>